<?xml version="1.0" encoding="utf-8"?>
<!-- Generator: Adobe Illustrator 24.1.0, SVG Export Plug-In . SVG Version: 6.00 Build 0)  -->
<svg version="1.1" id="Layer_1" xmlns="http://www.w3.org/2000/svg" xmlns:xlink="http://www.w3.org/1999/xlink" x="0px" y="0px"
	 viewBox="0 0 78.64 78.64" style="enable-background:new 0 0 78.64 78.64;" xml:space="preserve">
<style type="text/css">
	.st0{fill:#3B8A9D;}
</style>
<g>
	<g>
		<path class="st0" d="M62.59,21.67c2.21-0.6,5.62-2.01,7.82-2.01c7.02,0,8.22,15.65,8.22,16.05c0,9.43-22.27,5.82-22.27,11.23
			c0,1.6,12.44,14.64,12.44,19.86c0,3.61-12.04,11.84-15.25,11.84c-5.22,0-11.84-20.26-15.65-20.26c-2.81,0-13.64,18.26-18.86,18.26
			c-3.21,0-13.44-8.22-13.44-12.44c0-7.42,14.64-16.25,14.64-19.66C20.26,39.92,0,41.13,0,32.1c0-3.01,3.41-15.25,8.02-15.25
			c6.22,0,16.45,7.22,19.26,7.22c1.81,0,2.01-2.81,2.01-5.22c0-1.6-0.2-3.01-0.2-3.61V6.82C29.29,1.4,32.7,0,37.51,0
			c5.22,0,12.04-0.2,12.04,6.62c0,4.41-1.4,11.43-1.4,17.05c0,1,0.8,2.01,1.81,2.01c0.8,0,3.81-1,4.61-1.2L62.59,21.67z"/>
	</g>
</g>
</svg>